<svg xmlns="http://www.w3.org/2000/svg" width="327" height="252" fill="none" viewBox="0 0 327 252">
  <path fill="#FEFEFE" d="m299.987 0 .374.345c.206 1.044-.415 1.6-.713 2.583-2.537 8.371 4.524 17.295 13.55 15.014 1.149-.29 3.918-1.538 4.74-1.256-.052.627 0 .63-.51 1.232-2.911 3.433-5.238 4.27-9.313 4.958.166 2.305.174 3.24.085 5.592.224.39.907 1.17 1.222 1.555-.022.976-.17 4.076.29 4.685 2.781 3.683 13.818 9.47 16.538 12.567-.278 14.112.237 28.424-.055 42.542-.036 1.73-5.648 5.34-7.189 6.458l7.409 5.629c-.323 1.822-.188 10.752-.188 13.177l.007 28.249c-1.926 2.077-5.035 3.682-7.12 5.869 2.192 1.535 5.208 3.636 7.108 5.469.172 10.642.008 21.762.009 32.436l.002 63.803c-3.906.555-38.226.582-41.114-.226-.552-1.147-.295-11.084-.284-13.064 8.828-.251 18.822-.017 27.746-.018l-.003-76.51c-1.586-1.434-4.933-3.732-6.784-5.139a256.4 256.4 0 0 0-6.822 5.165l.001 23.055.002 40.433-70.697-.598v-12.51h31.484V167.73h11.542v43.765c4.414.077 9.42-.226 14.022-.22l-.003-56.425c1.704-1.728 5.235-4.229 7.271-5.75l-7.255-5.668c-.264-13.517-.013-27.898-.013-41.485 1.475-1.382 5.493-4.303 7.238-5.636-2.475-1.895-5.02-3.79-7.395-5.803.358-4.034.159-11.134.16-15.418l-.001-27.995c5.487-3.758 10.809-7.82 16.342-11.55l.009-5.338 1.404-2.125c-.331-2.284-.397-3.768-.066-6.034-9.128-4.8-10.839-15.091-3.03-22.048Zm-3.257 56.48.003 26.389c1.511 1.144 8.055 6.289 9.432 6.475a400.579 400.579 0 0 1 8.592-6.3c.422-2.322.284-7.064.282-9.59l-.022-16.838c-1.534-1.223-8.048-6.447-9.564-6.712-2.877 2.305-5.84 4.334-8.723 6.576Zm0 53.617.002 26.228c1.242 1.041 8.178 6.539 9.476 6.51 2.644-1.96 5.804-4.411 8.539-6.206.438-2.456.292-7.341.291-10.003l-.022-16.493c-1.517-1.153-8.204-6.384-9.472-6.718-2.753 2.422-6.067 4.329-8.814 6.682ZM133.029 18.963c.229.087.09.012.347.325-1.203 3.424-1.791 6.072-.157 9.524a10.177 10.177 0 0 0 5.884 5.263c4.33 1.53 6.683.1 10.342-1.68-2.508 4.005-4.761 5.375-9.338 6.087-.058 1.345-.038 2.891-.053 4.254l1.496 1.529c-.015 1.616-.044 2.566.177 4.17 19.331 6.78 42.868 14.748 59.149 27.58 12.997 10.24 17.023 22.443 18.596 38.344H206.59c-4.47-28.88-20.299-36.877-45.449-47.678-7.489-3.216-15.763-6.273-23.53-8.654-18.227 6.033-43.415 15.047-57.358 28.387-4.352 4.162-8.703 11.59-9.837 17.515-.411 2.151-.218 7.527-.213 10.043l.023 19.845-.006 78.009h45.729l-.024-31.503 22.471-.001 20.85.001.003 31.503h47.258v-41.997h11.313l.105 54.956H56.883l-.064-84.976-.016-22.391c-.007-2.35-.185-9.625.117-11.672.585-3.991 3.212-10.891 5.05-14.352 9.546-17.967 31.298-27.518 49.246-34.75 6.797-2.74 16.013-6.228 22.952-8.305l-.003-3.596c.43-.7.915-1.375 1.384-2.053v-4.767c-2.156-1.353-3.29-2.118-4.804-4.252-3.157-4.45-2.409-11.589 2.284-14.708Zm-5.758 192.863h20.632l.002-20.199h-20.631l-.003 20.199ZM1.715 236.548h161.031v12.939H1.715v-12.939ZM.05 176.49l10.416-.005v36.924l26.717-.002v-36.359h10.344v11.622l.012 36.358H.11c-.196-5.682-.07-11.991-.069-17.713l.01-30.825Z"/>
  <path fill="#FEFEFE" d="m256.78 228 17.076-.003v7.912h-9.077v6.283l9.369.004v5.224l-.022 2.656c-7.953.045-15.906.045-23.859 0v-7.88h6.573L256.78 228ZM18.15 154.38h12.815v12.812H18.149V154.38Zm177.929 82.425h12.797v12.819h-12.797v-12.819Zm-23.247-.312 12.806-.007v12.777h-12.806v-12.77Z"/>
</svg>
